<svg xmlns="http://www.w3.org/2000/svg" xmlns:xlink="http://www.w3.org/1999/xlink" width="1211" height="164"><g class="container" transform="translate(62,10)"></g><path class="link" d="M10,128.6875L10,100.0625,10,100.0625,36.43151307930772,100.0625" style="stroke-width: 1; stroke: black; fill-opacity: 0;"></path><path class="link" d="M10,128.6875L10,134,10,134,37.16946773124545,134" style="stroke-width: 1; stroke: black; fill-opacity: 0;"></path><path class="link" d="M10,128.6875L10,152,10,152,353.54066381560403,152" style="stroke-width: 1; stroke: black; fill-opacity: 0;"></path><path class="link" d="M36.43151307930772,100.0625L36.43151307930772,84.125,36.43151307930772,84.125,65.48581056867725,84.125" style="stroke-width: 1; stroke: black; fill-opacity: 0;"></path><path class="link" d="M36.43151307930772,100.0625L36.43151307930772,116,36.43151307930772,116,64.62771743325776,116" style="stroke-width: 1; stroke: black; fill-opacity: 0;"></path><path class="link" d="M65.48581056867725,84.125L65.48581056867725,64.25,65.48581056867725,64.25,286.68790641851916,64.25" style="stroke-width: 1; stroke: black; fill-opacity: 0;"></path><path class="link" d="M65.48581056867725,84.125L65.48581056867725,104,65.48581056867725,104,97.16634464072501,104" style="stroke-width: 1; stroke: black; fill-opacity: 0;"></path><path class="link" d="M286.68790641851916,64.25L286.68790641851916,45.5,286.68790641851916,45.5,438.659187754507,45.5" style="stroke-width: 1; stroke: black; fill-opacity: 0;"></path><path class="link" d="M286.68790641851916,64.25L286.68790641851916,83,286.68790641851916,83,353.94450691213314,83" style="stroke-width: 1; stroke: black; fill-opacity: 0;"></path><path class="link" d="M438.659187754507,45.5L438.659187754507,35,438.659187754507,35,469.6735376228808,35" style="stroke-width: 1; stroke: black; fill-opacity: 0;"></path><path class="link" d="M438.659187754507,45.5L438.659187754507,56,438.659187754507,56,475.7572087833799,56" style="stroke-width: 1; stroke: black; fill-opacity: 0;"></path><path class="link" d="M469.6735376228808,35L469.6735376228808,26,469.6735376228808,26,496.23952328976594,26" style="stroke-width: 1; stroke: black; fill-opacity: 0;"></path><path class="link" d="M469.6735376228808,35L469.6735376228808,44,469.6735376228808,44,498.87018142054,44" style="stroke-width: 1; stroke: black; fill-opacity: 0;"></path><path class="link" d="M496.23952328976594,26L496.23952328976594,20,496.23952328976594,20,524.9452726982115,20" style="stroke-width: 1; stroke: black; fill-opacity: 0;"></path><path class="link" d="M496.23952328976594,26L496.23952328976594,32,496.23952328976594,32,527.102244841442,32" style="stroke-width: 1; stroke: black; fill-opacity: 0;"></path><path class="link" d="M353.94450691213314,83L353.94450691213314,74,353.94450691213314,74,465.2572045486463,74" style="stroke-width: 1; stroke: black; fill-opacity: 0;"></path><path class="link" d="M353.94450691213314,83L353.94450691213314,92,353.94450691213314,92,543.3149325345645,92" style="stroke-width: 1; stroke: black; fill-opacity: 0;"></path><path class="link" d="M465.2572045486463,74L465.2572045486463,68,465.2572045486463,68,695.2357167646825,68" style="stroke-width: 1; stroke: black; fill-opacity: 0;"></path><path class="link" d="M465.2572045486463,74L465.2572045486463,80,465.2572045486463,80,854.3333333333333,80" style="stroke-width: 1; stroke: black; fill-opacity: 0;"></path><path class="link" d="M37.16946773124545,134L37.16946773124545,128,37.16946773124545,128,63.10980977266603,128" style="stroke-width: 1; stroke: black; fill-opacity: 0;"></path><path class="link" d="M37.16946773124545,134L37.16946773124545,140,37.16946773124545,140,63.19355670009735,140" style="stroke-width: 1; stroke: black; fill-opacity: 0;"></path><path class="link" d="M10,128.6875L10,100.0625,10,100.0625,36.43151307930772,100.0625" style="stroke-linejoin: round; fill-opacity: 0;"></path><path class="link" d="M10,128.6875L10,134,10,134,37.16946773124545,134" style="stroke-linejoin: round; fill-opacity: 0;"></path><path class="link" d="M10,128.6875L10,152,10,152,353.54066381560403,152" style="stroke-linejoin: round; fill-opacity: 0;"></path><path class="link" d="M36.43151307930772,100.0625L36.43151307930772,84.125,36.43151307930772,84.125,65.48581056867725,84.125" style="stroke-linejoin: round; fill-opacity: 0;"></path><path class="link" d="M36.43151307930772,100.0625L36.43151307930772,116,36.43151307930772,116,64.62771743325776,116" style="stroke-linejoin: round; fill-opacity: 0;"></path><path class="link" d="M65.48581056867725,84.125L65.48581056867725,64.25,65.48581056867725,64.25,286.68790641851916,64.25" style="stroke-linejoin: round; fill-opacity: 0;"></path><path class="link" d="M65.48581056867725,84.125L65.48581056867725,104,65.48581056867725,104,97.16634464072501,104" style="stroke-linejoin: round; fill-opacity: 0;"></path><path class="link" d="M286.68790641851916,64.25L286.68790641851916,45.5,286.68790641851916,45.5,438.659187754507,45.5" style="stroke-linejoin: round; fill-opacity: 0;"></path><path class="link" d="M286.68790641851916,64.25L286.68790641851916,83,286.68790641851916,83,353.94450691213314,83" style="stroke-linejoin: round; fill-opacity: 0;"></path><path class="link" d="M438.659187754507,45.5L438.659187754507,35,438.659187754507,35,469.6735376228808,35" style="stroke-linejoin: round; fill-opacity: 0;"></path><path class="link" d="M438.659187754507,45.5L438.659187754507,56,438.659187754507,56,475.7572087833799,56" style="stroke-linejoin: round; fill-opacity: 0;"></path><path class="link" d="M469.6735376228808,35L469.6735376228808,26,469.6735376228808,26,496.23952328976594,26" style="stroke-linejoin: round; fill-opacity: 0;"></path><path class="link" d="M469.6735376228808,35L469.6735376228808,44,469.6735376228808,44,498.87018142054,44" style="stroke-linejoin: round; fill-opacity: 0;"></path><path class="link" d="M496.23952328976594,26L496.23952328976594,20,496.23952328976594,20,524.9452726982115,20" style="stroke-linejoin: round; fill-opacity: 0;"></path><path class="link" d="M496.23952328976594,26L496.23952328976594,32,496.23952328976594,32,527.102244841442,32" style="stroke-linejoin: round; fill-opacity: 0;"></path><path class="link" d="M353.94450691213314,83L353.94450691213314,74,353.94450691213314,74,465.2572045486463,74" style="stroke-linejoin: round; fill-opacity: 0;"></path><path class="link" d="M353.94450691213314,83L353.94450691213314,92,353.94450691213314,92,543.3149325345645,92" style="stroke-linejoin: round; fill-opacity: 0;"></path><path class="link" d="M465.2572045486463,74L465.2572045486463,68,465.2572045486463,68,695.2357167646825,68" style="stroke-linejoin: round; fill-opacity: 0;"></path><path class="link" d="M465.2572045486463,74L465.2572045486463,80,465.2572045486463,80,854.3333333333333,80" style="stroke-linejoin: round; fill-opacity: 0;"></path><path class="link" d="M37.16946773124545,134L37.16946773124545,128,37.16946773124545,128,63.10980977266603,128" style="stroke-linejoin: round; fill-opacity: 0;"></path><path class="link" d="M37.16946773124545,134L37.16946773124545,140,37.16946773124545,140,63.19355670009735,140" style="stroke-linejoin: round; fill-opacity: 0;"></path><g class="node" transform="translate(10,128.6875)"><circle class="inode-dot" r="3"></circle><text width="20" height="24" x="5" y="3"><tspan class="fl" style="opacity: 1;"><tspan class="ch"></tspan><tspan style="fill: rgb(0, 0, 0);"></tspan><tspan id="inode0"></tspan></tspan></text><text class="support_label" text-anchor="end" dx="-12" dy="-2"></text></g><g class="node" transform="translate(36.431514739990234,100.0625)"><circle class="inode-dot" r="3"></circle><text width="20" height="24" x="5" y="3"><tspan class="fl" style="opacity: 1;"><tspan class="ch"></tspan><tspan style="fill: rgb(0, 0, 0);"></tspan><tspan id="inode1"></tspan></tspan></text><text class="support_label" text-anchor="end" dx="-12" dy="-2"></text></g><g class="node" transform="translate(65.48580932617188,84.125)"><circle class="inode-dot" r="3"></circle><text width="20" height="24" x="5" y="3"><tspan class="fl" style="opacity: 1;"><tspan class="ch"></tspan><tspan style="fill: rgb(0, 0, 0);"></tspan><tspan id="inode2"></tspan></tspan></text><text class="support_label" text-anchor="end" dx="-12" dy="-2"></text></g><g class="node" transform="translate(286.6878967285156,64.25)"><circle class="inode-dot" r="3"></circle><text width="20" height="24" x="5" y="3"><tspan class="fl" style="opacity: 1;"><tspan class="ch"></tspan><tspan style="fill: rgb(0, 0, 0);"></tspan><tspan id="inode3"></tspan></tspan></text><text class="support_label" text-anchor="end" dx="-12" dy="-2"></text></g><g class="node" transform="translate(438.6591796875,45.5)"><circle class="inode-dot" r="3"></circle><text width="20" height="24" x="5" y="3"><tspan class="fl" style="opacity: 1;"><tspan class="ch"></tspan><tspan style="fill: rgb(0, 0, 0);"></tspan><tspan id="inode4"></tspan></tspan></text><text class="support_label" text-anchor="end" dx="-12" dy="-2"></text></g><g class="node" transform="translate(469.67352294921875,35)"><circle class="inode-dot" r="3"></circle><text width="20" height="24" x="5" y="3"><tspan class="fl" style="opacity: 1;"><tspan class="ch"></tspan><tspan style="fill: rgb(0, 0, 0);"></tspan><tspan id="inode5"></tspan></tspan></text><text class="support_label" text-anchor="end" dx="-12" dy="-2"></text></g><g class="node" transform="translate(496.2395324707031,26)"><circle class="inode-dot" r="3"></circle><text width="20" height="24" x="5" y="3"><tspan class="fl" style="opacity: 1;"><tspan class="ch"></tspan><tspan style="fill: rgb(0, 0, 0);"></tspan><tspan id="inode6"></tspan></tspan></text><text class="support_label" text-anchor="end" dx="-12" dy="-2"></text></g><g class="node" transform="translate(524.9452514648438,20)"><circle class="tip-dot" r="3"></circle><text width="90" height="24" x="5" y="3"><tspan class="fl" style="opacity: 1;"><tspan class="ch"></tspan><tspan style="fill: rgb(0, 0, 0);"></tspan><tspan id="553212.3" style="fill: rgb(255, 0, 0);">Staphylococcus capitis SK14</tspan></tspan></text><text class="" text-anchor="start" dx="12" dy="3"></text></g><g class="node" transform="translate(527.1022338867188,32)"><circle class="tip-dot" r="3"></circle><text width="90" height="24" x="5" y="3"><tspan class="fl" style="opacity: 1;"><tspan class="ch"></tspan><tspan style="fill: rgb(0, 0, 0);"></tspan><tspan id="29388.43" style="fill: rgb(255, 0, 0);">Staphylococcus capitis strain FDAARGOS_173</tspan></tspan></text><text class="" text-anchor="start" dx="12" dy="3"></text></g><g class="node" transform="translate(498.87017822265625,44)"><circle class="tip-dot" r="3"></circle><text width="80" height="24" x="5" y="3"><tspan class="fl" style="opacity: 1;"><tspan class="ch"></tspan><tspan style="fill: rgb(0, 0, 0);"></tspan><tspan id="72758.6" style="fill: rgb(255, 0, 0);">Staphylococcus capitis subsp. capitis strain AYP1020</tspan></tspan></text><text class="" text-anchor="start" dx="12" dy="3"></text></g><g class="node" transform="translate(475.7572021484375,56)"><circle class="tip-dot" r="3"></circle><text width="90" height="24" x="5" y="3"><tspan class="fl" style="opacity: 1;"><tspan class="ch"></tspan><tspan style="fill: rgb(0, 0, 0);"></tspan><tspan id="435838.3" style="fill: rgb(255, 0, 0);">Staphylococcus caprae C87</tspan></tspan></text><text class="" text-anchor="start" dx="12" dy="3"></text></g><g class="node" transform="translate(353.94451904296875,83)"><circle class="inode-dot" r="3"></circle><text width="30" height="24" x="5" y="3"><tspan class="fl" style="opacity: 1;"><tspan class="ch"></tspan><tspan style="fill: rgb(0, 0, 0);"></tspan><tspan id="inode11"></tspan></tspan></text><text class="support_label" text-anchor="end" dx="-12" dy="-2">95</text></g><g class="node" transform="translate(465.2572021484375,74)"><circle class="inode-dot" r="3"></circle><text width="30" height="24" x="5" y="3"><tspan class="fl" style="opacity: 1;"><tspan class="ch"></tspan><tspan style="fill: rgb(0, 0, 0);"></tspan><tspan id="inode12"></tspan></tspan></text><text class="support_label" text-anchor="end" dx="-12" dy="-2"></text></g><g class="node" transform="translate(695.2357177734375,68)"><circle class="tip-dot" r="3"></circle><text width="70" height="24" x="5" y="3"><tspan class="fl" style="opacity: 1;"><tspan class="ch"></tspan><tspan style="fill: rgb(0, 0, 0);"></tspan><tspan id="1293.6" style="fill: rgb(255, 0, 0);">Staphylococcus gallinarum strain DSM 20610</tspan></tspan></text><text class="" text-anchor="start" dx="12" dy="3"></text></g><g class="node" transform="translate(854.3333129882812,80)"><circle class="tip-dot" r="3"></circle><text width="80" height="24" x="5" y="3"><tspan class="fl" style="opacity: 1;"><tspan class="ch"></tspan><tspan style="fill: rgb(0, 0, 0);"></tspan><tspan id="1295.23" style="fill: rgb(255, 0, 0);">Staphylococcus schleiferi strain 2317-03</tspan></tspan></text><text class="" text-anchor="start" dx="12" dy="3"></text></g><g class="node" transform="translate(543.31494140625,92)"><circle class="tip-dot" r="3"></circle><text width="90" height="24" x="5" y="3"><tspan class="fl" style="opacity: 1;"><tspan class="ch"></tspan><tspan style="fill: rgb(0, 0, 0);"></tspan><tspan id="279808.8" style="fill: rgb(255, 0, 0);">Staphylococcus haemolyticus JCSC1435</tspan></tspan></text><text class="" text-anchor="start" dx="12" dy="3"></text></g><g class="node" transform="translate(97.16634368896484,104)"><circle class="tip-dot" r="3"></circle><text width="100" height="24" x="5" y="3"><tspan class="fl" style="opacity: 1;"><tspan class="ch"></tspan><tspan style="fill: rgb(0, 0, 0);"></tspan><tspan id="46170.310" style="fill: rgb(255, 0, 0);">Staphylococcus aureus subsp. aureus strain VB4283</tspan></tspan></text><text class="" text-anchor="start" dx="12" dy="3"></text></g><g class="node" transform="translate(64.62771606445312,116)"><circle class="tip-dot" r="3"></circle><text width="100" height="24" x="5" y="3"><tspan class="fl" style="opacity: 1;"><tspan class="ch"></tspan><tspan style="fill: rgb(0, 0, 0);"></tspan><tspan id="158879.11" style="fill: rgb(255, 0, 0);">Staphylococcus aureus subsp. aureus N315</tspan></tspan></text><text class="" text-anchor="start" dx="12" dy="3"></text></g><g class="node" transform="translate(37.16946792602539,134)"><circle class="inode-dot" r="3"></circle><text width="30" height="24" x="5" y="3"><tspan class="fl" style="opacity: 1;"><tspan class="ch"></tspan><tspan style="fill: rgb(0, 0, 0);"></tspan><tspan id="inode18"></tspan></tspan></text><text class="support_label" text-anchor="end" dx="-12" dy="-2"></text></g><g class="node" transform="translate(63.10980987548828,128)"><circle class="tip-dot" r="3"></circle><text width="100" height="24" x="5" y="3"><tspan class="fl" style="opacity: 1;"><tspan class="ch"></tspan><tspan style="fill: rgb(0, 0, 0);"></tspan><tspan id="1241616.6" style="fill: rgb(255, 0, 0);">Staphylococcus aureus subsp. aureus DSM 20231</tspan></tspan></text><text class="" text-anchor="start" dx="12" dy="3"></text></g><g class="node" transform="translate(63.19355773925781,140)"><circle class="tip-dot" r="3"></circle><text width="80" height="24" x="5" y="3"><tspan class="fl" style="opacity: 1;"><tspan class="ch"></tspan><tspan style="fill: rgb(0, 0, 0);"></tspan><tspan id="93061.5" style="fill: rgb(255, 0, 0);">Staphylococcus aureus subsp. aureus NCTC 8325</tspan></tspan></text><text class="" text-anchor="start" dx="12" dy="3"></text></g><g class="node" transform="translate(353.5406494140625,152)"><circle class="tip-dot" r="3"></circle><text width="70" height="24" x="5" y="3"><tspan class="fl" style="opacity: 1;"><tspan class="ch"></tspan><tspan style="fill: rgb(0, 0, 0);"></tspan><tspan id="1548.3">Clostridium scatologenes strain ATCC 25775</tspan></tspan></text><text class="" text-anchor="start" dx="12" dy="3"></text></g></svg>