<svg version="1.1" xmlns="http://www.w3.org/2000/svg"><g transform="translate(500,350)"><path d="M1.5308084989341916e-14,-250A250,250 0 0,1 173.7749928310796,179.72827230727563L0,0Z" stroke-width="1px" fill="#668D3C" style="stroke: rgb(0, 0, 0);"></path><path d="M173.7749928310796,179.72827230727563A250,250 0 0,1 -39.129939055627304,246.91870700597573L0,0Z" stroke-width="1px" fill="#4E6172" style="stroke: rgb(0, 0, 0);"></path><path d="M-39.129939055627304,246.91870700597573A250,250 0 0,1 -183.43768142697647,169.85469387890075L0,0Z" stroke-width="1px" fill="#DBCA69" style="stroke: rgb(0, 0, 0);"></path><path d="M-183.43768142697647,169.85469387890075A250,250 0 0,1 -242.6757201507187,60.070748699596415L0,0Z" stroke-width="1px" fill="#8F3B1B" style="stroke: rgb(0, 0, 0);"></path><path d="M-242.6757201507187,60.070748699596415A250,250 0 0,1 -242.14793769768445,-62.16410756021788L0,0Z" stroke-width="1px" fill="#C8707E" style="stroke: rgb(0, 0, 0);"></path><path d="M-242.14793769768445,-62.16410756021788A250,250 0 0,1 -201.31109947821773,-148.23576230745104L0,0Z" stroke-width="1px" fill="#404F24" style="stroke: rgb(0, 0, 0);"></path><path d="M-201.31109947821773,-148.23576230745104A250,250 0 0,1 -151.17499841023826,-199.1133341985525L0,0Z" stroke-width="1px" fill="#B99C6B" style="stroke: rgb(0, 0, 0);"></path><path d="M-151.17499841023826,-199.1133341985525A250,250 0 0,1 -91.11511199547292,-232.80471723324771L0,0Z" stroke-width="1px" fill="#D57500" style="stroke: rgb(0, 0, 0);"></path><path d="M-91.11511199547292,-232.80471723324771A250,250 0 0,1 -45.51288824590979,-245.82224676280893L0,0Z" stroke-width="1px" fill="#BDD09F" style="stroke: rgb(0, 0, 0);"></path><path d="M-45.51288824590979,-245.82224676280893A250,250 0 0,1 -9.49675773005106,-249.8195580666508L0,0Z" stroke-width="1px" fill="#A3ADB8" style="stroke: rgb(0, 0, 0);"></path><path d="M-9.49675773005106,-249.8195580666508A250,250 0 0,1 1.7612034995700555e-13,-250L0,0Z" stroke-width="1px" fill="#83929F" style="stroke: rgb(0, 0, 0);"></path><g transform="translate(310,0)" id="legendHolder"><g class="subsystemslegend" transform="translate(-14,-160)"><rect width="60px" height="20px" fill="white" class="dgrid-expando-icon ui-icon ui-icon-triangle-1-e" style="0"></rect><text font-family="FontAwesome" y="12" font-size="undefinedem" x="0"></text><rect x="14" width="14" height="14" style="fill: rgb(102, 141, 60); stroke: rgb(102, 141, 60);"></rect><text x="33" y="11">Metabolism</text><text x="119.69189453125" y="11" style="fill: rgb(118, 167, 45);"> (85, </text><text x="150.5390625" y="11" style="fill: rgb(255, 203, 0);">687)</text></g><g class="subsystemslegend" transform="translate(-14,-141)"><rect width="60px" height="20px" fill="white" class="dgrid-expando-icon ui-icon ui-icon-triangle-1-e" style="0"></rect><text font-family="FontAwesome" y="12" font-size="undefinedem" x="0"></text><rect x="14" width="14" height="14" style="fill: rgb(78, 97, 114); stroke: rgb(78, 97, 114);"></rect><text x="33" y="11">Protein Processing</text><text x="168.89599609375" y="11" style="fill: rgb(118, 167, 45);"> (46, </text><text x="199.7431640625" y="11" style="fill: rgb(255, 203, 0);">268)</text></g><g class="subsystemslegend" transform="translate(-14,-122)"><rect width="60px" height="20px" fill="white" class="dgrid-expando-icon ui-icon ui-icon-triangle-1-e" style="0"></rect><text font-family="FontAwesome" y="12" font-size="undefinedem" x="0"></text><rect x="14" width="14" height="14" style="fill: rgb(219, 202, 105); stroke: rgb(219, 202, 105);"></rect><text x="33" y="11">Energy</text><text x="90.52685546875" y="11" style="fill: rgb(118, 167, 45);"> (27, </text><text x="121.3740234375" y="11" style="fill: rgb(255, 203, 0);">193)</text></g><g class="subsystemslegend" transform="translate(-14,-103)"><rect width="60px" height="20px" fill="white" class="dgrid-expando-icon ui-icon ui-icon-triangle-1-e" style="0"></rect><text font-family="FontAwesome" y="12" font-size="undefinedem" x="0"></text><rect x="14" width="14" height="14" style="fill: rgb(143, 59, 27); stroke: rgb(143, 59, 27);"></rect><text x="33" y="11">Cellular Processes</text><text x="168.04638671875" y="11" style="fill: rgb(118, 167, 45);"> (15, </text><text x="198.8935546875" y="11" style="fill: rgb(255, 203, 0);">146)</text></g><g class="subsystemslegend" transform="translate(-14,-84)"><rect width="60px" height="20px" fill="white" class="dgrid-expando-icon ui-icon ui-icon-triangle-1-e" style="0"></rect><text font-family="FontAwesome" y="12" font-size="undefinedem" x="0"></text><rect x="14" width="14" height="14" style="fill: rgb(200, 112, 126); stroke: rgb(200, 112, 126);"></rect><text x="33" y="11">Stress Response, Defense, Virulence</text><text x="292.0234375" y="11" style="fill: rgb(118, 167, 45);"> (22, </text><text x="322.87060546875" y="11" style="fill: rgb(255, 203, 0);">143)</text></g><g class="subsystemslegend" transform="translate(-14,-65)"><rect width="60px" height="20px" fill="white" class="dgrid-expando-icon ui-icon ui-icon-triangle-1-e" style="0"></rect><text font-family="FontAwesome" y="12" font-size="undefinedem" x="0"></text><rect x="14" width="14" height="14" style="fill: rgb(64, 79, 36); stroke: rgb(64, 79, 36);"></rect><text x="33" y="11">Membrane Transport</text><text x="182.4970703125" y="11" style="fill: rgb(118, 167, 45);"> (13, </text><text x="213.34423828125" y="11" style="fill: rgb(255, 203, 0);">111)</text></g><g class="subsystemslegend" transform="translate(-14,-46)"><rect width="60px" height="20px" fill="white" class="dgrid-expando-icon ui-icon ui-icon-triangle-1-e" style="0"></rect><text font-family="FontAwesome" y="12" font-size="undefinedem" x="0"></text><rect x="14" width="14" height="14" style="fill: rgb(185, 156, 107); stroke: rgb(185, 156, 107);"></rect><text x="33" y="11">Cell Envelope</text><text x="135.55615234375" y="11" style="fill: rgb(118, 167, 45);"> (13, </text><text x="166.4033203125" y="11" style="fill: rgb(255, 203, 0);">83)</text></g><g class="subsystemslegend" transform="translate(-14,-27)"><rect width="60px" height="20px" fill="white" class="dgrid-expando-icon ui-icon ui-icon-triangle-1-e" style="0"></rect><text font-family="FontAwesome" y="12" font-size="undefinedem" x="0"></text><rect x="14" width="14" height="14" style="fill: rgb(213, 117, 0); stroke: rgb(213, 117, 0);"></rect><text x="33" y="11">DNA Processing</text><text x="153.0390625" y="11" style="fill: rgb(118, 167, 45);"> (17, </text><text x="183.88623046875" y="11" style="fill: rgb(255, 203, 0);">80)</text></g><g class="subsystemslegend" transform="translate(-14,-8)"><rect width="60px" height="20px" fill="white" class="dgrid-expando-icon ui-icon ui-icon-triangle-1-e" style="0"></rect><text font-family="FontAwesome" y="12" font-size="undefinedem" x="0"></text><rect x="14" width="14" height="14" style="fill: rgb(189, 208, 159); stroke: rgb(189, 208, 159);"></rect><text x="33" y="11">Miscellaneous</text><text x="138.04638671875" y="11" style="fill: rgb(118, 167, 45);"> (7, </text><text x="160.55126953125" y="11" style="fill: rgb(255, 203, 0);">55)</text></g><g class="subsystemslegend" transform="translate(-14,11)"><rect width="60px" height="20px" fill="white" class="dgrid-expando-icon ui-icon ui-icon-triangle-1-e" style="0"></rect><text font-family="FontAwesome" y="12" font-size="undefinedem" x="0"></text><rect x="14" width="14" height="14" style="fill: rgb(163, 173, 184); stroke: rgb(163, 173, 184);"></rect><text x="33" y="11">RNA Processing</text><text x="153.0390625" y="11" style="fill: rgb(118, 167, 45);"> (11, </text><text x="182.77294921875" y="11" style="fill: rgb(255, 203, 0);">42)</text></g><g class="subsystemslegend" transform="translate(-14,30)"><rect width="60px" height="20px" fill="white" class="dgrid-expando-icon ui-icon ui-icon-triangle-1-e" style="0"></rect><text font-family="FontAwesome" y="12" font-size="undefinedem" x="0"></text><rect x="14" width="14" height="14" style="fill: rgb(131, 146, 159); stroke: rgb(131, 146, 159);"></rect><text x="33" y="11">Regulation And Cell Signaling</text><text x="241.46435546875" y="11" style="fill: rgb(118, 167, 45);"> (3, </text><text x="263.96923828125" y="11" style="fill: rgb(255, 203, 0);">11)</text></g></g></g><text x="500" y="50" text-anchor="middle" style="font-weight: bold; font-size: 14px;">Subsystem Category Distribution - Mycobacterium tuberculosis H37Rv</text><text x="800" y="100" text-anchor="top" style="font-weight: bold; font-size: 14px;">Subsystem Counts</text><text x="935" y="100" text-anchor="top" style="font-weight: bold; font-size: 14px; fill: rgb(118, 167, 45);"> (Subsystems, </text><text x="1030" y="100" text-anchor="top" style="font-weight: bold; font-size: 14px; fill: rgb(255, 203, 0);">Genes)</text></svg>