<svg class="pie" width="200" height="200"><g transform="translate(100,100)"><g><path d="M5.8170722959499274e-15,-95A95,95,0,0,1,52.78750584323118,78.98404412823412L0,0Z" fill="#1f77b4" style="opacity: 0.8; stroke: white;"></path></g><g><path d="M52.78750584323118,78.98404412823412A95,95,0,0,1,-39.35166799454686,86.46644566562776L0,0Z" fill="#ff7f0e" style="opacity: 0.8; stroke: white;"></path></g><g><path d="M-39.35166799454686,86.46644566562776A95,95,0,0,1,-87.46640078898955,37.07598593456212L0,0Z" fill="#2ca02c" style="opacity: 0.8; stroke: white;"></path></g><g><path d="M-87.46640078898955,37.07598593456212A95,95,0,0,1,-94.85705848175219,-5.209458339352079L0,0Z" fill="#d62728" style="opacity: 0.8; stroke: white;"></path></g><g><path d="M-94.85705848175219,-5.209458339352079A95,95,0,0,1,-85.68625123230791,-41.02275404886672L0,0Z" fill="#9467bd" style="opacity: 0.8; stroke: white;"></path></g><g><path d="M-85.68625123230791,-41.02275404886672A95,95,0,0,1,-66.11804957457785,-68.21585974283154L0,0Z" fill="#8c564b" style="opacity: 0.8; stroke: white;"></path></g><g><path d="M-66.11804957457785,-68.21585974283154A95,95,0,0,1,-47.47685049269493,-82.28577439201926L0,0Z" fill="#e377c2" style="opacity: 0.8; stroke: white;"></path></g><g><path d="M-47.47685049269493,-82.28577439201926A95,95,0,0,1,-28.42468823400059,-90.6478742100435L0,0Z" fill="#7f7f7f" style="opacity: 0.8; stroke: white;"></path></g><g><path d="M-28.42468823400059,-90.6478742100435A95,95,0,0,1,-19.113224543109517,-93.05742661155355L0,0Z" fill="#bcbd22" style="opacity: 0.8; stroke: white;"></path></g><g><path d="M-19.113224543109517,-93.05742661155355A95,95,0,0,1,-11.199894756669963,-94.33749179111938L0,0Z" fill="#17becf" style="opacity: 0.8; stroke: white;"></path></g><g><path d="M-11.199894756669963,-94.33749179111938A95,95,0,0,1,-4.1683195384210565,-94.90850916659484L0,0Z" fill="#1f77b4" style="opacity: 0.8; stroke: white;"></path></g><g><path d="M-4.1683195384210565,-94.90850916659484A95,95,0,0,1,-1.0182816675936167e-13,-95L0,0Z" fill="#ff7f0e" style="opacity: 0.8; stroke: white;"></path></g></g><g class="legend" style="margin-top: 30px;"><div class="key" style="display: flex; margin-right: 20px;"><g class="key-box" style="height: 12px; width: 12px; margin: 3px 5px 5px 5px; background-color: rgb(31, 119, 180);"></g><g class="name">Metabolism (756)</g></div><div class="key" style="display: flex; margin-right: 20px;"><g class="key-box" style="height: 12px; width: 12px; margin: 3px 5px 5px 5px; background-color: rgb(255, 127, 14);"></g><g class="name">Energy (301)</g></div><div class="key" style="display: flex; margin-right: 20px;"><g class="key-box" style="height: 12px; width: 12px; margin: 3px 5px 5px 5px; background-color: rgb(44, 160, 44);"></g><g class="name">Protein Processing (220)</g></div><div class="key" style="display: flex; margin-right: 20px;"><g class="key-box" style="height: 12px; width: 12px; margin: 3px 5px 5px 5px; background-color: rgb(214, 39, 40);"></g><g class="name">Membrane Transport (135)</g></div><div class="key" style="display: flex; margin-right: 20px;"><g class="key-box" style="height: 12px; width: 12px; margin: 3px 5px 5px 5px; background-color: rgb(148, 103, 189);"></g><g class="name">Stress Response, Defense, Virulence (116)</g></div><div class="key" style="display: flex; margin-right: 20px;"><g class="key-box" style="height: 12px; width: 12px; margin: 3px 5px 5px 5px; background-color: rgb(140, 86, 75);"></g><g class="name">Cellular Processes (105)</g></div><div class="key" style="display: flex; margin-right: 20px;"><g class="key-box" style="height: 12px; width: 12px; margin: 3px 5px 5px 5px; background-color: rgb(227, 119, 194);"></g><g class="name">DNA Processing (73)</g></div><div class="key" style="display: flex; margin-right: 20px;"><g class="key-box" style="height: 12px; width: 12px; margin: 3px 5px 5px 5px; background-color: rgb(127, 127, 127);"></g><g class="name">RNA Processing (65)</g></div><div class="key" style="display: flex; margin-right: 20px;"><g class="key-box" style="height: 12px; width: 12px; margin: 3px 5px 5px 5px; background-color: rgb(188, 189, 34);"></g><g class="name">Cell Envelope (30)</g></div><div class="key" style="display: flex; margin-right: 20px;"><g class="key-box" style="height: 12px; width: 12px; margin: 3px 5px 5px 5px; background-color: rgb(23, 190, 207);"></g><g class="name">Miscellaneous (25)</g></div><div class="key" style="display: flex; margin-right: 20px;"><g class="key-box" style="height: 12px; width: 12px; margin: 3px 5px 5px 5px; background-color: rgb(31, 119, 180);"></g><g class="name"> (22)</g></div><div class="key" style="display: flex; margin-right: 20px;"><g class="key-box" style="height: 12px; width: 12px; margin: 3px 5px 5px 5px; background-color: rgb(255, 127, 14);"></g><g class="name">Regulation And Cell Signaling (13)</g></div></g></svg>