<svg version="1.1" xmlns="http://www.w3.org/2000/svg"><g transform="translate(500,350)"><path d="M1.5308084989341916e-14,-250A250,250 0 0,1 164.21781965716755,188.50068357182684L0,0Z" stroke-width="1px" fill="#668D3C" style="stroke: rgb(0, 0, 0);"></path><path d="M164.21781965716755,188.50068357182684A250,250 0 0,1 -60.249627151305475,242.631371483839L0,0Z" stroke-width="1px" fill="#4E6172" style="stroke: rgb(0, 0, 0);"></path><path d="M-60.249627151305475,242.631371483839A250,250 0 0,1 -217.9931113505395,122.38873887621885L0,0Z" stroke-width="1px" fill="#DBCA69" style="stroke: rgb(0, 0, 0);"></path><path d="M-217.9931113505395,122.38873887621885A250,250 0 0,1 -246.98347394991674,-38.719034022439075L0,0Z" stroke-width="1px" fill="#C8707E" style="stroke: rgb(0, 0, 0);"></path><path d="M-246.98347394991674,-38.719034022439075A250,250 0 0,1 -211.0578265888568,-133.99475301513883L0,0Z" stroke-width="1px" fill="#8F3B1B" style="stroke: rgb(0, 0, 0);"></path><path d="M-211.0578265888568,-133.99475301513883A250,250 0 0,1 -147.492748184272,-201.8561102197576L0,0Z" stroke-width="1px" fill="#D57500" style="stroke: rgb(0, 0, 0);"></path><path d="M-147.492748184272,-201.8561102197576A250,250 0 0,1 -90.31041654678845,-233.11805735108888L0,0Z" stroke-width="1px" fill="#404F24" style="stroke: rgb(0, 0, 0);"></path><path d="M-90.31041654678845,-233.11805735108888A250,250 0 0,1 -41.49959256485619,-246.53150674295352L0,0Z" stroke-width="1px" fill="#A3ADB8" style="stroke: rgb(0, 0, 0);"></path><path d="M-41.49959256485619,-246.53150674295352A250,250 0 0,1 -22.506021867648506,-248.98489709155638L0,0Z" stroke-width="1px" fill="#83929F" style="stroke: rgb(0, 0, 0);"></path><path d="M-22.506021867648506,-248.98489709155638A250,250 0 0,1 -14.64036523838974,-249.57095124570597L0,0Z" stroke-width="1px" fill="#626804" style="stroke: rgb(0, 0, 0);"></path><path d="M-14.64036523838974,-249.57095124570597A250,250 0 0,1 -6.760135703490884,-249.90858441692313L0,0Z" stroke-width="1px" fill="#B99C6B" style="stroke: rgb(0, 0, 0);"></path><path d="M-6.760135703490884,-249.90858441692313A250,250 0 0,1 -4.5924254968025744e-14,-250L0,0Z" stroke-width="1px" fill="#BDD09F" style="stroke: rgb(0, 0, 0);"></path><g transform="translate(310,0)" id="legendHolder"><g class="subsystemslegend" transform="translate(-14,-160)"><rect width="60px" height="20px" fill="white" class="dgrid-expando-icon ui-icon ui-icon-triangle-1-e" style="0"></rect><text font-family="FontAwesome" y="12" font-size="undefinedem" x="0"></text><rect x="14" width="14" height="14" style="fill: rgb(102, 141, 60); stroke: rgb(102, 141, 60);"></rect><text x="33" y="11">Metabolism</text><text x="114.89493560791016" y="11" style="fill: rgb(118, 167, 45);"> (83, </text><text x="144.35990142822266" y="11" style="fill: rgb(255, 203, 0);">538)</text></g><g class="subsystemslegend" transform="translate(-14,-141)"><rect width="60px" height="20px" fill="white" class="dgrid-expando-icon ui-icon ui-icon-triangle-1-e" style="0"></rect><text font-family="FontAwesome" y="12" font-size="undefinedem" x="0"></text><rect x="14" width="14" height="14" style="fill: rgb(78, 97, 114); stroke: rgb(78, 97, 114);"></rect><text x="33" y="11">Protein Processing</text><text x="158.514892578125" y="11" style="fill: rgb(118, 167, 45);"> (40, </text><text x="187.9798583984375" y="11" style="fill: rgb(255, 203, 0);">213)</text></g><g class="subsystemslegend" transform="translate(-14,-122)"><rect width="60px" height="20px" fill="white" class="dgrid-expando-icon ui-icon ui-icon-triangle-1-e" style="0"></rect><text font-family="FontAwesome" y="12" font-size="undefinedem" x="0"></text><rect x="14" width="14" height="14" style="fill: rgb(219, 202, 105); stroke: rgb(219, 202, 105);"></rect><text x="33" y="11">Energy</text><text x="85.67497634887695" y="11" style="fill: rgb(118, 167, 45);"> (25, </text><text x="115.13994216918945" y="11" style="fill: rgb(255, 203, 0);">181)</text></g><g class="subsystemslegend" transform="translate(-14,-103)"><rect width="60px" height="20px" fill="white" class="dgrid-expando-icon ui-icon ui-icon-triangle-1-e" style="0"></rect><text font-family="FontAwesome" y="12" font-size="undefinedem" x="0"></text><rect x="14" width="14" height="14" style="fill: rgb(200, 112, 126); stroke: rgb(200, 112, 126);"></rect><text x="33" y="11">Stress Response, Defense, Virulence</text><text x="275.1398162841797" y="11" style="fill: rgb(118, 167, 45);"> (37, </text><text x="304.6047821044922" y="11" style="fill: rgb(255, 203, 0);">148)</text></g><g class="subsystemslegend" transform="translate(-14,-84)"><rect width="60px" height="20px" fill="white" class="dgrid-expando-icon ui-icon ui-icon-triangle-1-e" style="0"></rect><text font-family="FontAwesome" y="12" font-size="undefinedem" x="0"></text><rect x="14" width="14" height="14" style="fill: rgb(143, 59, 27); stroke: rgb(143, 59, 27);"></rect><text x="33" y="11">Cellular Processes</text><text x="158.13990783691406" y="11" style="fill: rgb(118, 167, 45);"> (14, </text><text x="187.60487365722656" y="11" style="fill: rgb(255, 203, 0);">91)</text></g><g class="subsystemslegend" transform="translate(-14,-65)"><rect width="60px" height="20px" fill="white" class="dgrid-expando-icon ui-icon ui-icon-triangle-1-e" style="0"></rect><text font-family="FontAwesome" y="12" font-size="undefinedem" x="0"></text><rect x="14" width="14" height="14" style="fill: rgb(213, 117, 0); stroke: rgb(213, 117, 0);"></rect><text x="33" y="11">DNA Processing</text><text x="145.2099151611328" y="11" style="fill: rgb(118, 167, 45);"> (19, </text><text x="174.6748809814453" y="11" style="fill: rgb(255, 203, 0);">83)</text></g><g class="subsystemslegend" transform="translate(-14,-46)"><rect width="60px" height="20px" fill="white" class="dgrid-expando-icon ui-icon ui-icon-triangle-1-e" style="0"></rect><text font-family="FontAwesome" y="12" font-size="undefinedem" x="0"></text><rect x="14" width="14" height="14" style="fill: rgb(64, 79, 36); stroke: rgb(64, 79, 36);"></rect><text x="33" y="11">Membrane Transport</text><text x="171.86489868164062" y="11" style="fill: rgb(118, 167, 45);"> (11, </text><text x="201.32986450195312" y="11" style="fill: rgb(255, 203, 0);">58)</text></g><g class="subsystemslegend" transform="translate(-14,-27)"><rect width="60px" height="20px" fill="white" class="dgrid-expando-icon ui-icon ui-icon-triangle-1-e" style="0"></rect><text font-family="FontAwesome" y="12" font-size="undefinedem" x="0"></text><rect x="14" width="14" height="14" style="fill: rgb(163, 173, 184); stroke: rgb(163, 173, 184);"></rect><text x="33" y="11">RNA Processing</text><text x="144.65492248535156" y="11" style="fill: rgb(118, 167, 45);"> (11, </text><text x="174.11988830566406" y="11" style="fill: rgb(255, 203, 0);">45)</text></g><g class="subsystemslegend" transform="translate(-14,-8)"><rect width="60px" height="20px" fill="white" class="dgrid-expando-icon ui-icon ui-icon-triangle-1-e" style="0"></rect><text font-family="FontAwesome" y="12" font-size="undefinedem" x="0"></text><rect x="14" width="14" height="14" style="fill: rgb(131, 146, 159); stroke: rgb(131, 146, 159);"></rect><text x="33" y="11">Regulation And Cell Signaling</text><text x="225.44488525390625" y="11" style="fill: rgb(118, 167, 45);"> (4, </text><text x="246.56986045837402" y="11" style="fill: rgb(255, 203, 0);">17)</text></g><g class="subsystemslegend" transform="translate(-14,11)"><rect width="60px" height="20px" fill="white" class="dgrid-expando-icon ui-icon ui-icon-triangle-1-e" style="0"></rect><text font-family="FontAwesome" y="12" font-size="undefinedem" x="0"></text><rect x="14" width="14" height="14"></rect><text x="33" y="11"></text><text x="43" y="11" style="fill: rgb(118, 167, 45);"> (1, </text><text x="64.12497520446777" y="11" style="fill: rgb(255, 203, 0);">7)</text></g><g class="subsystemslegend" transform="translate(-14,30)"><rect width="60px" height="20px" fill="white" class="dgrid-expando-icon ui-icon ui-icon-triangle-1-e" style="0"></rect><text font-family="FontAwesome" y="12" font-size="undefinedem" x="0"></text><rect x="14" width="14" height="14" style="fill: rgb(185, 156, 107); stroke: rgb(185, 156, 107);"></rect><text x="33" y="11">Cell Envelope</text><text x="127.88494873046875" y="11" style="fill: rgb(118, 167, 45);"> (2, </text><text x="149.00992393493652" y="11" style="fill: rgb(255, 203, 0);">7)</text></g><g class="subsystemslegend" transform="translate(-14,49)"><rect width="60px" height="20px" fill="white" class="dgrid-expando-icon ui-icon ui-icon-triangle-1-e" style="0"></rect><text font-family="FontAwesome" y="12" font-size="undefinedem" x="0"></text><rect x="14" width="14" height="14" style="fill: rgb(189, 208, 159); stroke: rgb(189, 208, 159);"></rect><text x="33" y="11">Miscellaneous</text><text x="131.60494232177734" y="11" style="fill: rgb(118, 167, 45);"> (3, </text><text x="152.72991752624512" y="11" style="fill: rgb(255, 203, 0);">6)</text></g></g></g><text x="500" y="50" text-anchor="middle" style="font-weight: bold; font-size: 14px;">Subsystem Category Distribution - Staphylococcus aureus subsp. aureus strain VB4283</text><text x="800" y="100" text-anchor="top" style="font-weight: bold; font-size: 14px;">Subsystem Counts</text><text x="935" y="100" text-anchor="top" style="font-weight: bold; font-size: 14px; fill: rgb(118, 167, 45);"> (Subsystems, </text><text x="1030" y="100" text-anchor="top" style="font-weight: bold; font-size: 14px; fill: rgb(255, 203, 0);">Genes)</text><g transform="translate(100,0)"></g><rect x="120" y="130" width="50" id="subsystemsCovered" height="164" style="fill: rgb(57, 159, 86);"></rect><rect x="120" y="294" width="50" id="subsystemsNotCovered" height="236.00000000000006" style="fill: rgb(63, 105, 147);"></rect><text x="150" y="100" text-anchor="middle" style="font-weight: bold; font-size: 14px;">Subsystem Coverage</text><text x="145" y="212" text-anchor="middle" style="fill: rgb(255, 255, 255);">44%</text><text x="145" y="412" text-anchor="middle" style="fill: rgb(255, 255, 255);">56.00000000000001%</text></svg>