<svg version="1.1" xmlns="http://www.w3.org/2000/svg"><g transform="translate(500,350)"><path d="M1.5308084989341916e-14,-250A250,250 0 0,1 138.91448906113467,207.85274770587924L0,0Z" stroke-width="1px" fill="#668D3C" style="stroke: rgb(0, 0, 0);"></path><path d="M138.91448906113467,207.85274770587924A250,250 0 0,1 -103.5570210382812,227.54327806744146L0,0Z" stroke-width="1px" fill="#DBCA69" style="stroke: rgb(0, 0, 0);"></path><path d="M-103.5570210382812,227.54327806744146A250,250 0 0,1 -230.17473891839356,97.56838403832137L0,0Z" stroke-width="1px" fill="#4E6172" style="stroke: rgb(0, 0, 0);"></path><path d="M-230.17473891839356,97.56838403832137A250,250 0 0,1 -249.62383810987419,-13.709100893031787L0,0Z" stroke-width="1px" fill="#404F24" style="stroke: rgb(0, 0, 0);"></path><path d="M-249.62383810987419,-13.709100893031787A250,250 0 0,1 -225.4901348218629,-107.95461591807032L0,0Z" stroke-width="1px" fill="#C8707E" style="stroke: rgb(0, 0, 0);"></path><path d="M-225.4901348218629,-107.95461591807032A250,250 0 0,1 -173.99486730152066,-179.51542037587248L0,0Z" stroke-width="1px" fill="#8F3B1B" style="stroke: rgb(0, 0, 0);"></path><path d="M-173.99486730152066,-179.51542037587248A250,250 0 0,1 -124.93908024393401,-216.54151155794543L0,0Z" stroke-width="1px" fill="#D57500" style="stroke: rgb(0, 0, 0);"></path><path d="M-124.93908024393401,-216.54151155794543A250,250 0 0,1 -74.80181114210683,-238.54703739485132L0,0Z" stroke-width="1px" fill="#A3ADB8" style="stroke: rgb(0, 0, 0);"></path><path d="M-74.80181114210683,-238.54703739485132A250,250 0 0,1 -50.297959323972414,-244.8879647672462L0,0Z" stroke-width="1px" fill="#B99C6B" style="stroke: rgb(0, 0, 0);"></path><path d="M-50.297959323972414,-244.8879647672462A250,250 0 0,1 -29.47340725439464,-248.256557345051L0,0Z" stroke-width="1px" fill="#BDD09F" style="stroke: rgb(0, 0, 0);"></path><path d="M-29.47340725439464,-248.256557345051A250,250 0 0,1 -10.969261943213308,-249.75923464893378L0,0Z" stroke-width="1px" fill="#b9e5f0" style="stroke: rgb(0, 0, 0);"></path><path d="M-10.969261943213308,-249.75923464893378A250,250 0 0,1 -2.67968859893057e-13,-250L0,0Z" stroke-width="1px" fill="#83929F" style="stroke: rgb(0, 0, 0);"></path><g transform="translate(310,0)" id="legendHolder"><g class="subsystemslegend" transform="translate(-14,-160)"><rect width="60px" height="20px" fill="white" class="dgrid-expando-icon ui-icon ui-icon-triangle-1-e" style="0"></rect><text font-family="FontAwesome" y="12" font-size="undefinedem" x="0"></text><rect x="14" width="14" height="14" style="fill: rgb(102, 141, 60); stroke: rgb(102, 141, 60);"></rect><text x="33" y="11">Metabolism</text><text x="119.69189453125" y="11" style="fill: rgb(118, 167, 45);"> (95, </text><text x="150.5390625" y="11" style="fill: rgb(255, 203, 0);">756)</text></g><g class="subsystemslegend" transform="translate(-14,-141)"><rect width="60px" height="20px" fill="white" class="dgrid-expando-icon ui-icon ui-icon-triangle-1-e" style="0"></rect><text font-family="FontAwesome" y="12" font-size="undefinedem" x="0"></text><rect x="14" width="14" height="14" style="fill: rgb(219, 202, 105); stroke: rgb(219, 202, 105);"></rect><text x="33" y="11">Energy</text><text x="90.52685546875" y="11" style="fill: rgb(118, 167, 45);"> (30, </text><text x="121.3740234375" y="11" style="fill: rgb(255, 203, 0);">301)</text></g><g class="subsystemslegend" transform="translate(-14,-122)"><rect width="60px" height="20px" fill="white" class="dgrid-expando-icon ui-icon ui-icon-triangle-1-e" style="0"></rect><text font-family="FontAwesome" y="12" font-size="undefinedem" x="0"></text><rect x="14" width="14" height="14" style="fill: rgb(78, 97, 114); stroke: rgb(78, 97, 114);"></rect><text x="33" y="11">Protein Processing</text><text x="168.89599609375" y="11" style="fill: rgb(118, 167, 45);"> (43, </text><text x="199.7431640625" y="11" style="fill: rgb(255, 203, 0);">220)</text></g><g class="subsystemslegend" transform="translate(-14,-103)"><rect width="60px" height="20px" fill="white" class="dgrid-expando-icon ui-icon ui-icon-triangle-1-e" style="0"></rect><text font-family="FontAwesome" y="12" font-size="undefinedem" x="0"></text><rect x="14" width="14" height="14" style="fill: rgb(64, 79, 36); stroke: rgb(64, 79, 36);"></rect><text x="33" y="11">Membrane Transport</text><text x="182.4970703125" y="11" style="fill: rgb(118, 167, 45);"> (18, </text><text x="213.34423828125" y="11" style="fill: rgb(255, 203, 0);">135)</text></g><g class="subsystemslegend" transform="translate(-14,-84)"><rect width="60px" height="20px" fill="white" class="dgrid-expando-icon ui-icon ui-icon-triangle-1-e" style="0"></rect><text font-family="FontAwesome" y="12" font-size="undefinedem" x="0"></text><rect x="14" width="14" height="14" style="fill: rgb(200, 112, 126); stroke: rgb(200, 112, 126);"></rect><text x="33" y="11">Stress Response, Defense, Virulence</text><text x="292.0234375" y="11" style="fill: rgb(118, 167, 45);"> (25, </text><text x="322.87060546875" y="11" style="fill: rgb(255, 203, 0);">116)</text></g><g class="subsystemslegend" transform="translate(-14,-65)"><rect width="60px" height="20px" fill="white" class="dgrid-expando-icon ui-icon ui-icon-triangle-1-e" style="0"></rect><text font-family="FontAwesome" y="12" font-size="undefinedem" x="0"></text><rect x="14" width="14" height="14" style="fill: rgb(143, 59, 27); stroke: rgb(143, 59, 27);"></rect><text x="33" y="11">Cellular Processes</text><text x="168.04638671875" y="11" style="fill: rgb(118, 167, 45);"> (13, </text><text x="198.8935546875" y="11" style="fill: rgb(255, 203, 0);">105)</text></g><g class="subsystemslegend" transform="translate(-14,-46)"><rect width="60px" height="20px" fill="white" class="dgrid-expando-icon ui-icon ui-icon-triangle-1-e" style="0"></rect><text font-family="FontAwesome" y="12" font-size="undefinedem" x="0"></text><rect x="14" width="14" height="14" style="fill: rgb(213, 117, 0); stroke: rgb(213, 117, 0);"></rect><text x="33" y="11">DNA Processing</text><text x="153.0390625" y="11" style="fill: rgb(118, 167, 45);"> (15, </text><text x="183.88623046875" y="11" style="fill: rgb(255, 203, 0);">73)</text></g><g class="subsystemslegend" transform="translate(-14,-27)"><rect width="60px" height="20px" fill="white" class="dgrid-expando-icon ui-icon ui-icon-triangle-1-e" style="0"></rect><text font-family="FontAwesome" y="12" font-size="undefinedem" x="0"></text><rect x="14" width="14" height="14" style="fill: rgb(163, 173, 184); stroke: rgb(163, 173, 184);"></rect><text x="33" y="11">RNA Processing</text><text x="153.0390625" y="11" style="fill: rgb(118, 167, 45);"> (15, </text><text x="183.88623046875" y="11" style="fill: rgb(255, 203, 0);">65)</text></g><g class="subsystemslegend" transform="translate(-14,-8)"><rect width="60px" height="20px" fill="white" class="dgrid-expando-icon ui-icon ui-icon-triangle-1-e" style="0"></rect><text font-family="FontAwesome" y="12" font-size="undefinedem" x="0"></text><rect x="14" width="14" height="14" style="fill: rgb(185, 156, 107); stroke: rgb(185, 156, 107);"></rect><text x="33" y="11">Cell Envelope</text><text x="135.55615234375" y="11" style="fill: rgb(118, 167, 45);"> (6, </text><text x="158.06103515625" y="11" style="fill: rgb(255, 203, 0);">30)</text></g><g class="subsystemslegend" transform="translate(-14,11)"><rect width="60px" height="20px" fill="white" class="dgrid-expando-icon ui-icon ui-icon-triangle-1-e" style="0"></rect><text font-family="FontAwesome" y="12" font-size="undefinedem" x="0"></text><rect x="14" width="14" height="14" style="fill: rgb(189, 208, 159); stroke: rgb(189, 208, 159);"></rect><text x="33" y="11">Miscellaneous</text><text x="138.04638671875" y="11" style="fill: rgb(118, 167, 45);"> (4, </text><text x="160.55126953125" y="11" style="fill: rgb(255, 203, 0);">25)</text></g><g class="subsystemslegend" transform="translate(-14,30)"><rect width="60px" height="20px" fill="white" class="dgrid-expando-icon ui-icon ui-icon-triangle-1-e" style="0"></rect><text font-family="FontAwesome" y="12" font-size="undefinedem" x="0"></text><rect x="14" width="14" height="14"></rect><text x="33" y="11"></text><text x="43" y="11" style="fill: rgb(118, 167, 45);"> (5, </text><text x="65.5048828125" y="11" style="fill: rgb(255, 203, 0);">22)</text></g><g class="subsystemslegend" transform="translate(-14,49)"><rect width="60px" height="20px" fill="white" class="dgrid-expando-icon ui-icon ui-icon-triangle-1-e" style="0"></rect><text font-family="FontAwesome" y="12" font-size="undefinedem" x="0"></text><rect x="14" width="14" height="14" style="fill: rgb(131, 146, 159); stroke: rgb(131, 146, 159);"></rect><text x="33" y="11">Regulation And Cell Signaling</text><text x="241.46435546875" y="11" style="fill: rgb(118, 167, 45);"> (3, </text><text x="263.96923828125" y="11" style="fill: rgb(255, 203, 0);">13)</text></g></g></g><text x="500" y="50" text-anchor="middle" style="font-weight: bold; font-size: 14px;">Subsystem Category Distribution - Brucella neotomae 5K33</text><text x="800" y="100" text-anchor="top" style="font-weight: bold; font-size: 14px;">Subsystem Counts</text><text x="935" y="100" text-anchor="top" style="font-weight: bold; font-size: 14px; fill: rgb(118, 167, 45);"> (Subsystems, </text><text x="1030" y="100" text-anchor="top" style="font-weight: bold; font-size: 14px; fill: rgb(255, 203, 0);">Genes)</text><g transform="translate(100,0)"></g><rect x="120" y="130" width="50" id="subsystemsCovered" height="218" style="fill: rgb(57, 159, 86);"></rect><rect x="120" y="348" width="50" id="subsystemsNotCovered" height="182" style="fill: rgb(63, 105, 147);"></rect><text x="150" y="100" text-anchor="middle" style="font-weight: bold; font-size: 14px;">Subsystem Coverage</text><text x="145" y="239" text-anchor="middle" style="fill: rgb(255, 255, 255);">53%</text><text x="145" y="439" text-anchor="middle" style="fill: rgb(255, 255, 255);">47%</text></svg>