<svg xmlns="http://www.w3.org/2000/svg" xmlns:xlink="http://www.w3.org/1999/xlink" width="1371" height="164"><g class="container" transform="translate(50,10)"></g><path class="link" d="M10,134.90625L10,112.71875,10,112.71875,109.72574440956082,112.71875" style="stroke-width: 1; stroke: black; fill-opacity: 0;"></path><path class="link" d="M10,134.90625L10,140,10,140,99.25895320072655,140" style="stroke-width: 1; stroke: black; fill-opacity: 0;"></path><path class="link" d="M10,134.90625L10,152,10,152,97.9371941128145,152" style="stroke-width: 1; stroke: black; fill-opacity: 0;"></path><path class="link" d="M109.72574440956082,112.71875L109.72574440956082,97.4375,109.72574440956082,97.4375,201.12420871600034,97.4375" style="stroke-width: 1; stroke: black; fill-opacity: 0;"></path><path class="link" d="M109.72574440956082,112.71875L109.72574440956082,128,109.72574440956082,128,214.9110985625671,128" style="stroke-width: 1; stroke: black; fill-opacity: 0;"></path><path class="link" d="M201.12420871600034,97.4375L201.12420871600034,78.875,201.12420871600034,78.875,288.61414675251314,78.875" style="stroke-width: 1; stroke: black; fill-opacity: 0;"></path><path class="link" d="M201.12420871600034,97.4375L201.12420871600034,116,201.12420871600034,116,1094.3333333333333,116" style="stroke-width: 1; stroke: black; fill-opacity: 0;"></path><path class="link" d="M288.61414675251314,78.875L288.61414675251314,59.75,288.61414675251314,59.75,376.1001381539597,59.75" style="stroke-width: 1; stroke: black; fill-opacity: 0;"></path><path class="link" d="M288.61414675251314,78.875L288.61414675251314,98,288.61414675251314,98,377.0531590231193,98" style="stroke-width: 1; stroke: black; fill-opacity: 0;"></path><path class="link" d="M376.1001381539597,59.75L376.1001381539597,45.5,376.1001381539597,45.5,463.67715021608745,45.5" style="stroke-width: 1; stroke: black; fill-opacity: 0;"></path><path class="link" d="M376.1001381539597,59.75L376.1001381539597,74,376.1001381539597,74,465.84696931567913,74" style="stroke-width: 1; stroke: black; fill-opacity: 0;"></path><path class="link" d="M463.67715021608745,45.5L463.67715021608745,35,463.67715021608745,35,551.1504040582778,35" style="stroke-width: 1; stroke: black; fill-opacity: 0;"></path><path class="link" d="M463.67715021608745,45.5L463.67715021608745,56,463.67715021608745,56,564.9337986691078,56" style="stroke-width: 1; stroke: black; fill-opacity: 0;"></path><path class="link" d="M551.1504040582778,35L551.1504040582778,26,551.1504040582778,26,644.2911735210149,26" style="stroke-width: 1; stroke: black; fill-opacity: 0;"></path><path class="link" d="M551.1504040582778,35L551.1504040582778,44,551.1504040582778,44,643.2097644399637,44" style="stroke-width: 1; stroke: black; fill-opacity: 0;"></path><path class="link" d="M644.2911735210149,26L644.2911735210149,20,644.2911735210149,20,738.3475530111947,20" style="stroke-width: 1; stroke: black; fill-opacity: 0;"></path><path class="link" d="M644.2911735210149,26L644.2911735210149,32,644.2911735210149,32,736.259503472962,32" style="stroke-width: 1; stroke: black; fill-opacity: 0;"></path><path class="link" d="M465.84696931567913,74L465.84696931567913,68,465.84696931567913,68,562.9086220025025,68" style="stroke-width: 1; stroke: black; fill-opacity: 0;"></path><path class="link" d="M465.84696931567913,74L465.84696931567913,80,465.84696931567913,80,559.2340983391193,80" style="stroke-width: 1; stroke: black; fill-opacity: 0;"></path><path class="link" d="M377.0531590231193,98L377.0531590231193,92,377.0531590231193,92,487.30759144316835,92" style="stroke-width: 1; stroke: black; fill-opacity: 0;"></path><path class="link" d="M377.0531590231193,98L377.0531590231193,104,377.0531590231193,104,482.83273828690517,104" style="stroke-width: 1; stroke: black; fill-opacity: 0;"></path><path class="link" d="M10,134.90625L10,112.71875,10,112.71875,109.72574440956082,112.71875" style="stroke-linejoin: round; fill-opacity: 0;"></path><path class="link" d="M10,134.90625L10,140,10,140,99.25895320072655,140" style="stroke-linejoin: round; fill-opacity: 0;"></path><path class="link" d="M10,134.90625L10,152,10,152,97.9371941128145,152" style="stroke-linejoin: round; fill-opacity: 0;"></path><path class="link" d="M109.72574440956082,112.71875L109.72574440956082,97.4375,109.72574440956082,97.4375,201.12420871600034,97.4375" style="stroke-linejoin: round; fill-opacity: 0;"></path><path class="link" d="M109.72574440956082,112.71875L109.72574440956082,128,109.72574440956082,128,214.9110985625671,128" style="stroke-linejoin: round; fill-opacity: 0;"></path><path class="link" d="M201.12420871600034,97.4375L201.12420871600034,78.875,201.12420871600034,78.875,288.61414675251314,78.875" style="stroke-linejoin: round; fill-opacity: 0;"></path><path class="link" d="M201.12420871600034,97.4375L201.12420871600034,116,201.12420871600034,116,1094.3333333333333,116" style="stroke-linejoin: round; fill-opacity: 0;"></path><path class="link" d="M288.61414675251314,78.875L288.61414675251314,59.75,288.61414675251314,59.75,376.1001381539597,59.75" style="stroke-linejoin: round; fill-opacity: 0;"></path><path class="link" d="M288.61414675251314,78.875L288.61414675251314,98,288.61414675251314,98,377.0531590231193,98" style="stroke-linejoin: round; fill-opacity: 0;"></path><path class="link" d="M376.1001381539597,59.75L376.1001381539597,45.5,376.1001381539597,45.5,463.67715021608745,45.5" style="stroke-linejoin: round; fill-opacity: 0;"></path><path class="link" d="M376.1001381539597,59.75L376.1001381539597,74,376.1001381539597,74,465.84696931567913,74" style="stroke-linejoin: round; fill-opacity: 0;"></path><path class="link" d="M463.67715021608745,45.5L463.67715021608745,35,463.67715021608745,35,551.1504040582778,35" style="stroke-linejoin: round; fill-opacity: 0;"></path><path class="link" d="M463.67715021608745,45.5L463.67715021608745,56,463.67715021608745,56,564.9337986691078,56" style="stroke-linejoin: round; fill-opacity: 0;"></path><path class="link" d="M551.1504040582778,35L551.1504040582778,26,551.1504040582778,26,644.2911735210149,26" style="stroke-linejoin: round; fill-opacity: 0;"></path><path class="link" d="M551.1504040582778,35L551.1504040582778,44,551.1504040582778,44,643.2097644399637,44" style="stroke-linejoin: round; fill-opacity: 0;"></path><path class="link" d="M644.2911735210149,26L644.2911735210149,20,644.2911735210149,20,738.3475530111947,20" style="stroke-linejoin: round; fill-opacity: 0;"></path><path class="link" d="M644.2911735210149,26L644.2911735210149,32,644.2911735210149,32,736.259503472962,32" style="stroke-linejoin: round; fill-opacity: 0;"></path><path class="link" d="M465.84696931567913,74L465.84696931567913,68,465.84696931567913,68,562.9086220025025,68" style="stroke-linejoin: round; fill-opacity: 0;"></path><path class="link" d="M465.84696931567913,74L465.84696931567913,80,465.84696931567913,80,559.2340983391193,80" style="stroke-linejoin: round; fill-opacity: 0;"></path><path class="link" d="M377.0531590231193,98L377.0531590231193,92,377.0531590231193,92,487.30759144316835,92" style="stroke-linejoin: round; fill-opacity: 0;"></path><path class="link" d="M377.0531590231193,98L377.0531590231193,104,377.0531590231193,104,482.83273828690517,104" style="stroke-linejoin: round; fill-opacity: 0;"></path><g class="node" transform="translate(10,134.90625)"><circle class="inode-dot" r="3"></circle><text width="20" height="24" x="5" y="3"><tspan class="fl" style="opacity: 1;"><tspan class="ch"></tspan><tspan style="fill: rgb(0, 0, 0);"></tspan><tspan id="inode0"></tspan></tspan></text><text class="support_label" text-anchor="end" dx="-12" dy="-2"></text></g><g class="node" transform="translate(109.72574615478516,112.71875)"><circle class="inode-dot" r="3"></circle><text width="20" height="24" x="5" y="3"><tspan class="fl" style="opacity: 1;"><tspan class="ch"></tspan><tspan style="fill: rgb(0, 0, 0);"></tspan><tspan id="inode1"></tspan></tspan></text><text class="support_label" text-anchor="end" dx="-12" dy="-2"></text></g><g class="node" transform="translate(201.12420654296875,97.4375)"><circle class="inode-dot" r="3"></circle><text width="20" height="24" x="5" y="3"><tspan class="fl" style="opacity: 1;"><tspan class="ch"></tspan><tspan style="fill: rgb(0, 0, 0);"></tspan><tspan id="inode2"></tspan></tspan></text><text class="support_label" text-anchor="end" dx="-12" dy="-2"></text></g><g class="node" transform="translate(288.6141357421875,78.875)"><circle class="inode-dot" r="3"></circle><text width="20" height="24" x="5" y="3"><tspan class="fl" style="opacity: 1;"><tspan class="ch"></tspan><tspan style="fill: rgb(0, 0, 0);"></tspan><tspan id="inode3"></tspan></tspan></text><text class="support_label" text-anchor="end" dx="-12" dy="-2">32</text></g><g class="node" transform="translate(376.1001281738281,59.75)"><circle class="inode-dot" r="3"></circle><text width="20" height="24" x="5" y="3"><tspan class="fl" style="opacity: 1;"><tspan class="ch"></tspan><tspan style="fill: rgb(0, 0, 0);"></tspan><tspan id="inode4"></tspan></tspan></text><text class="support_label" text-anchor="end" dx="-12" dy="-2">62</text></g><g class="node" transform="translate(463.6771545410156,45.5)"><circle class="inode-dot" r="3"></circle><text width="20" height="24" x="5" y="3"><tspan class="fl" style="opacity: 1;"><tspan class="ch"></tspan><tspan style="fill: rgb(0, 0, 0);"></tspan><tspan id="inode5"></tspan></tspan></text><text class="support_label" text-anchor="end" dx="-12" dy="-2">59</text></g><g class="node" transform="translate(551.150390625,35)"><circle class="inode-dot" r="3"></circle><text width="20" height="24" x="5" y="3"><tspan class="fl" style="opacity: 1;"><tspan class="ch"></tspan><tspan style="fill: rgb(0, 0, 0);"></tspan><tspan id="inode6"></tspan></tspan></text><text class="support_label" text-anchor="end" dx="-12" dy="-2">73</text></g><g class="node" transform="translate(644.2911987304688,26)"><circle class="inode-dot" r="3"></circle><text width="20" height="24" x="5" y="3"><tspan class="fl" style="opacity: 1;"><tspan class="ch"></tspan><tspan style="fill: rgb(0, 0, 0);"></tspan><tspan id="inode7"></tspan></tspan></text><text class="support_label" text-anchor="end" dx="-12" dy="-2"></text></g><g class="node" transform="translate(738.3475341796875,20)"><circle class="tip-dot" r="3"></circle><text width="90" height="24" x="5" y="3"><tspan class="fl" style="opacity: 1;"><tspan class="ch"></tspan><tspan style="fill: rgb(0, 0, 0);"></tspan><tspan id="483179.4" style="fill: rgb(255, 0, 0);">Brucella canis ATCC 23365</tspan></tspan></text><text class="" text-anchor="start" dx="12" dy="3"></text></g><g class="node" transform="translate(736.259521484375,32)"><circle class="tip-dot" r="3"></circle><text width="90" height="24" x="5" y="3"><tspan class="fl" style="opacity: 1;"><tspan class="ch"></tspan><tspan style="fill: rgb(0, 0, 0);"></tspan><tspan id="204722.5" style="fill: rgb(255, 0, 0);">Brucella suis 1330</tspan></tspan></text><text class="" text-anchor="start" dx="12" dy="3"></text></g><g class="node" transform="translate(643.2097778320312,44)"><circle class="tip-dot" r="3"></circle><text width="90" height="24" x="5" y="3"><tspan class="fl" style="opacity: 1;"><tspan class="ch"></tspan><tspan style="fill: rgb(0, 0, 0);"></tspan><tspan id="568815.3" style="fill: rgb(255, 0, 0);">Brucella microti CCM 4915</tspan></tspan></text><text class="" text-anchor="start" dx="12" dy="3"></text></g><g class="node" transform="translate(564.9337768554688,56)"><circle class="tip-dot" r="3"></circle><text width="90" height="24" x="5" y="3"><tspan class="fl" style="opacity: 1;"><tspan class="ch"></tspan><tspan style="fill: rgb(0, 0, 0);"></tspan><tspan id="520456.3" style="fill: rgb(255, 0, 0);">Brucella neotomae 5K33</tspan></tspan></text><text class="" text-anchor="start" dx="12" dy="3"></text></g><g class="node" transform="translate(465.8469543457031,74)"><circle class="inode-dot" r="3"></circle><text width="30" height="24" x="5" y="3"><tspan class="fl" style="opacity: 1;"><tspan class="ch"></tspan><tspan style="fill: rgb(0, 0, 0);"></tspan><tspan id="inode12"></tspan></tspan></text><text class="support_label" text-anchor="end" dx="-12" dy="-2"></text></g><g class="node" transform="translate(562.9086303710938,68)"><circle class="tip-dot" r="3"></circle><text width="90" height="24" x="5" y="3"><tspan class="fl" style="opacity: 1;"><tspan class="ch"></tspan><tspan style="fill: rgb(0, 0, 0);"></tspan><tspan id="520459.3" style="fill: rgb(255, 0, 0);">Brucella ceti M644/93/1</tspan></tspan></text><text class="" text-anchor="start" dx="12" dy="3"></text></g><g class="node" transform="translate(559.2340698242188,80)"><circle class="tip-dot" r="3"></circle><text width="90" height="24" x="5" y="3"><tspan class="fl" style="opacity: 1;"><tspan class="ch"></tspan><tspan style="fill: rgb(0, 0, 0);"></tspan><tspan id="520461.7" style="fill: rgb(255, 0, 0);">Brucella pinnipedialis B2/94</tspan></tspan></text><text class="" text-anchor="start" dx="12" dy="3"></text></g><g class="node" transform="translate(377.05316162109375,98)"><circle class="inode-dot" r="3"></circle><text width="30" height="24" x="5" y="3"><tspan class="fl" style="opacity: 1;"><tspan class="ch"></tspan><tspan style="fill: rgb(0, 0, 0);"></tspan><tspan id="inode15"></tspan></tspan></text><text class="support_label" text-anchor="end" dx="-12" dy="-2">95</text></g><g class="node" transform="translate(487.3075866699219,92)"><circle class="tip-dot" r="3"></circle><text width="90" height="24" x="5" y="3"><tspan class="fl" style="opacity: 1;"><tspan class="ch"></tspan><tspan style="fill: rgb(0, 0, 0);"></tspan><tspan id="444178.3" style="fill: rgb(255, 0, 0);">Brucella ovis ATCC 25840</tspan></tspan></text><text class="" text-anchor="start" dx="12" dy="3"></text></g><g class="node" transform="translate(482.8327331542969,104)"><circle class="tip-dot" r="3"></circle><text width="90" height="24" x="5" y="3"><tspan class="fl" style="opacity: 1;"><tspan class="ch"></tspan><tspan style="fill: rgb(0, 0, 0);"></tspan><tspan id="520448.3" style="fill: rgb(255, 0, 0);">Brucella sp. NVSL 07-0026</tspan></tspan></text><text class="" text-anchor="start" dx="12" dy="3"></text></g><g class="node" transform="translate(1094.3333740234375,116)"><circle class="tip-dot" r="3"></circle><text width="90" height="24" x="5" y="3"><tspan class="fl" style="opacity: 1;"><tspan class="ch"></tspan><tspan style="fill: rgb(0, 0, 0);"></tspan><tspan id="419475.3">Ochrobactrum pseudogrignonense strain K8</tspan></tspan></text><text class="" text-anchor="start" dx="12" dy="3"></text></g><g class="node" transform="translate(214.91110229492188,128)"><circle class="tip-dot" r="3"></circle><text width="100" height="24" x="5" y="3"><tspan class="fl" style="opacity: 1;"><tspan class="ch"></tspan><tspan style="fill: rgb(0, 0, 0);"></tspan><tspan id="224914.11" style="fill: rgb(255, 0, 0);">Brucella melitensis bv. 1 str. 16M</tspan></tspan></text><text class="" text-anchor="start" dx="12" dy="3"></text></g><g class="node" transform="translate(99.25895690917969,140)"><circle class="tip-dot" r="3"></circle><text width="90" height="24" x="5" y="3"><tspan class="fl" style="opacity: 1;"><tspan class="ch"></tspan><tspan style="fill: rgb(0, 0, 0);"></tspan><tspan id="359391.4" style="fill: rgb(255, 0, 0);">Brucella melitensis biovar Abortus 2308</tspan></tspan></text><text class="" text-anchor="start" dx="12" dy="3"></text></g><g class="node" transform="translate(97.93719482421875,152)"><circle class="tip-dot" r="3"></circle><text width="90" height="24" x="5" y="3"><tspan class="fl" style="opacity: 1;"><tspan class="ch"></tspan><tspan style="fill: rgb(0, 0, 0);"></tspan><tspan id="262698.4" style="fill: rgb(255, 0, 0);">Brucella abortus bv. 1 str. 9-941</tspan></tspan></text><text class="" text-anchor="start" dx="12" dy="3"></text></g></svg>